<svg xmlns="http://www.w3.org/2000/svg" viewBox="0 0 1440 320">
	<path fill="#ffffff" fill-opacity="0.33" d="M0,192L12.6,208C25.3,224,51,256,76,261.3C101.1,267,126,245,152,224C176.8,203,202,181,227,176C252.6,171,278,181,303,154.7C328.4,128,354,64,379,69.3C404.2,75,429,149,455,197.3C480,245,505,267,531,261.3C555.8,256,581,224,606,186.7C631.6,149,657,107,682,106.7C707.4,107,733,149,758,170.7C783.2,192,808,192,834,160C858.9,128,884,64,909,64C934.7,64,960,128,985,160C1010.5,192,1036,192,1061,160C1086.3,128,1112,64,1137,85.3C1162.1,107,1187,213,1213,240C1237.9,267,1263,213,1288,165.3C1313.7,117,1339,75,1364,96C1389.5,117,1415,203,1427,245.3L1440,288L1440,320L1427.4,320C1414.7,320,1389,320,1364,320C1338.9,320,1314,320,1288,320C1263.2,320,1238,320,1213,320C1187.4,320,1162,320,1137,320C1111.6,320,1086,320,1061,320C1035.8,320,1011,320,985,320C960,320,935,320,909,320C884.2,320,859,320,834,320C808.4,320,783,320,758,320C732.6,320,707,320,682,320C656.8,320,632,320,606,320C581.1,320,556,320,531,320C505.3,320,480,320,455,320C429.5,320,404,320,379,320C353.7,320,328,320,303,320C277.9,320,253,320,227,320C202.1,320,177,320,152,320C126.3,320,101,320,76,320C50.5,320,25,320,13,320L0,320Z"></path>
	<path fill="#ffffff" fill-opacity="0.66" d="M0,96L15,112C30,128,60,160,90,165.3C120,171,150,149,180,128C210,107,240,85,270,96C300,107,330,149,360,154.7C390,160,420,128,450,101.3C480,75,510,53,540,42.7C570,32,600,32,630,58.7C660,85,690,139,720,170.7C750,203,780,213,810,229.3C840,245,870,267,900,261.3C930,256,960,224,990,224C1020,224,1050,256,1080,266.7C1110,277,1140,267,1170,229.3C1200,192,1230,128,1260,112C1290,96,1320,128,1350,149.3C1380,171,1410,181,1425,186.7L1440,192L1440,320L1425,320C1410,320,1380,320,1350,320C1320,320,1290,320,1260,320C1230,320,1200,320,1170,320C1140,320,1110,320,1080,320C1050,320,1020,320,990,320C960,320,930,320,900,320C870,320,840,320,810,320C780,320,750,320,720,320C690,320,660,320,630,320C600,320,570,320,540,320C510,320,480,320,450,320C420,320,390,320,360,320C330,320,300,320,270,320C240,320,210,320,180,320C150,320,120,320,90,320C60,320,30,320,15,320L0,320Z"></path>
	<path fill="#ffffff" d="M0,128L16,133.3C32,139,64,149,96,165.3C128,181,160,203,192,213.3C224,224,256,224,288,234.7C320,245,352,267,384,245.3C416,224,448,160,480,144C512,128,544,160,576,149.3C608,139,640,85,672,74.7C704,64,736,96,768,112C800,128,832,128,864,149.3C896,171,928,213,960,197.3C992,181,1024,107,1056,85.3C1088,64,1120,96,1152,128C1184,160,1216,192,1248,208C1280,224,1312,224,1344,213.3C1376,203,1408,181,1424,170.7L1440,160L1440,320L1424,320C1408,320,1376,320,1344,320C1312,320,1280,320,1248,320C1216,320,1184,320,1152,320C1120,320,1088,320,1056,320C1024,320,992,320,960,320C928,320,896,320,864,320C832,320,800,320,768,320C736,320,704,320,672,320C640,320,608,320,576,320C544,320,512,320,480,320C448,320,416,320,384,320C352,320,320,320,288,320C256,320,224,320,192,320C160,320,128,320,96,320C64,320,32,320,16,320L0,320Z"></path>
</svg>
